<svg xmlns="http://www.w3.org/2000/svg" viewBox="0 0 48 48">
  <defs>
    <linearGradient id="gold" x1="0%" y1="0%" x2="100%" y2="100%">
      <stop offset="0%" stop-color="#D4A017"/>
      <stop offset="100%" stop-color="#FFD700"/>
    </linearGradient>
  </defs>
  <circle cx="24" cy="24" r="20" fill="url(#gold)"/>
  <path d="M24 12c-6.6 0-12 5.4-12 12s5.4 12 12 12 12-5.4 12-12-5.4-12-12-12zm0 20c-4.4 0-8-3.6-8-8s3.6-8 8-8 8 3.6 8 8-3.6 8-8 8z" fill="#000"/>
  <path d="M24 22a8 8 0 1 0 0-16 8 8 0 0 0 0 16z" fill="#FF6500"/>
  <path d="M18 24h12v2H18zM18 20h12v2H18z" fill="#fff"/>
</svg>